<?xml version="1.0" encoding="utf-8"?>
<!-- Generator: Adobe Illustrator 25.3.1, SVG Export Plug-In . SVG Version: 6.00 Build 0)  -->
<svg version="1.1" id="Components" xmlns="http://www.w3.org/2000/svg" xmlns:xlink="http://www.w3.org/1999/xlink" x="0px" y="0px"
	 viewBox="0 0 1600 1600" style="enable-background:new 0 0 1600 1600;" xml:space="preserve">
<g>
	<path d="M471.29,1426.77V245.97c0-3.12,2.53-5.65,5.65-5.66c33.1-0.15,66.2-1.63,99.3-4.44c17.22-1.47,32.37-2.31,45.45-2.5
		c3.17-0.05,5.77,2.5,5.77,5.67v2.08c0,2.93-2.23,5.36-5.15,5.64c-32.52,3.08-57.59,12.64-75.23,28.68
		c-19.41,16.88-29.11,51.69-29.11,104.41v919.41c0,41.75,7.8,72.97,23.42,93.64c14.55,20.21,41.5,31.9,80.84,35.07
		c2.94,0.24,5.22,2.69,5.22,5.64l0,0c0,3.17-2.59,5.72-5.76,5.67c-15.95-0.28-40.17-1.62-72.65-4.02
		c-14.79-1.11-38.86-2.04-72.22-2.8C473.76,1432.37,471.29,1429.85,471.29,1426.77z"/>
	<path d="M1129.21,245.97v1180.8c0,3.08-2.47,5.6-5.55,5.67c-33.36,0.78-57.43,1.73-72.21,2.87c-32.48,2.35-56.68,3.68-72.63,3.95
		c-3.17,0.05-5.76-2.51-5.76-5.68l0,0c0-2.95,2.27-5.41,5.21-5.65c37.74-3.16,64.47-14.42,80.21-33.79
		c16.03-20.67,24.05-52.31,24.05-94.91V379.83c0-52.72-9.5-87.53-28.47-104.41c-17.65-16.05-42.93-25.61-75.84-28.68
		c-2.92-0.27-5.16-2.71-5.16-5.65v-2.07c0-3.17,2.59-5.71,5.75-5.68c13.08,0.15,28.23,0.81,45.45,1.97
		c33.1,3.16,66.2,4.82,99.3,4.99C1126.68,240.32,1129.21,242.85,1129.21,245.97z"/>
</g>
<g>
	<path d="M1025.6,306.32v156.66c0,3.13-2.54,5.67-5.67,5.67h-0.72c-3.09,0-5.61-2.48-5.66-5.56
		c-1.46-83.8-35.68-150.44-77.95-150.44h-72.33c-3.13,0-5.67,2.54-5.67,5.67v804.66c0,3.13,2.54,5.67,5.67,5.67h36.66
		c3.13,0,5.67,2.54,5.67,5.67v0.66c0,3.13-2.54,5.67-5.67,5.67H719.27c-3.13,0-5.67-2.54-5.67-5.67v-0.66
		c0-3.13,2.54-5.67,5.67-5.67h36.66c3.13,0,5.67-2.54,5.67-5.67V318.32c0-3.13-2.54-5.67-5.67-5.67H683.6
		c-42.27,0-76.5,66.63-77.95,150.44c-0.05,3.09-2.57,5.56-5.66,5.56h-0.72c-3.13,0-5.67-2.54-5.67-5.67V306.32
		c0-3.13,2.54-5.67,5.67-5.67h420.66C1023.07,300.65,1025.6,303.19,1025.6,306.32z"/>
</g>
<g>
	<path d="M971.6,1330.95c0,3.03-2.38,5.55-5.41,5.66c-80.89,3.06-106.49,74.3-174.59,74.3c-99.6,0-180-86.4-180-192v-480
		c0-105.6,80.4-192,180-192c49.25,0,84.75,19.48,110.97,52.84c1.23,1.57,3.19,2.4,5.17,2.17c14.28-1.68,26.14-14.25,27.69-37.7
		c0.2-2.98,2.66-5.31,5.65-5.31h0.85c3.13,0,5.67,2.54,5.67,5.67v168.66c0,3.13-2.54,5.67-5.67,5.67h-0.73
		c-3.08,0-5.59-2.46-5.66-5.55c-2.15-100.39-62.41-174.45-131.94-174.45c-60,0-96,80.4-96,180v480c0,99.6,37.2,180,84,180
		c46.8,0,84-80.4,84-180V997.77c0-3.13-2.54-5.67-5.67-5.67h-36.66c-3.13,0-5.67-2.54-5.67-5.67v-0.66c0-3.13,2.54-5.67,5.67-5.67
		h180.66c3.13,0,5.67,2.54,5.67,5.67v0.66c0,3.13-2.54,5.67-5.67,5.67h-36.66c-3.13,0-5.67,2.54-5.67,5.67V1330.95z"/>
</g>
</svg>
