<?xml version="1.0" encoding="utf-8"?>
<!-- Generator: Adobe Illustrator 25.3.1, SVG Export Plug-In . SVG Version: 6.00 Build 0)  -->
<svg version="1.1" id="Components" xmlns="http://www.w3.org/2000/svg" xmlns:xlink="http://www.w3.org/1999/xlink" x="0px" y="0px"
	 viewBox="0 0 5000 1600" style="enable-background:new 0 0 5000 1600;" xml:space="preserve">
<g>
	<g>
		<path d="M322.45,1353.77V172.97c0-3.12,2.53-5.65,5.65-5.66c33.1-0.15,66.2-1.63,99.3-4.44c17.22-1.47,32.37-2.31,45.45-2.5
			c3.17-0.05,5.77,2.5,5.77,5.67v2.08c0,2.93-2.23,5.36-5.15,5.64c-32.52,3.08-57.59,12.64-75.23,28.68
			c-19.41,16.88-29.11,51.69-29.11,104.41v919.41c0,41.75,7.8,72.97,23.42,93.64c14.55,20.21,41.5,31.9,80.84,35.07
			c2.94,0.24,5.22,2.69,5.22,5.64l0,0c0,3.17-2.59,5.72-5.76,5.67c-15.95-0.28-40.17-1.62-72.65-4.02
			c-14.79-1.11-38.86-2.04-72.22-2.8C324.92,1359.37,322.45,1356.85,322.45,1353.77z"/>
		<path d="M980.36,172.97v1180.8c0,3.08-2.47,5.6-5.55,5.67c-33.36,0.78-57.43,1.73-72.21,2.87c-32.48,2.35-56.68,3.68-72.63,3.95
			c-3.17,0.05-5.76-2.51-5.76-5.68l0,0c0-2.95,2.27-5.41,5.21-5.65c37.74-3.16,64.47-14.42,80.21-33.79
			c16.03-20.67,24.05-52.31,24.05-94.91V306.83c0-52.72-9.5-87.53-28.47-104.41c-17.65-16.05-42.93-25.61-75.84-28.68
			c-2.92-0.27-5.16-2.71-5.16-5.65v-2.07c0-3.17,2.59-5.71,5.75-5.68c13.08,0.15,28.23,0.81,45.45,1.97
			c33.1,3.16,66.2,4.82,99.3,4.99C977.83,167.32,980.36,169.85,980.36,172.97z"/>
	</g>
	<g>
		<path d="M876.76,233.32v156.66c0,3.13-2.54,5.67-5.67,5.67h-0.72c-3.09,0-5.61-2.48-5.66-5.56
			c-1.46-83.8-35.68-150.44-77.95-150.44h-72.33c-3.13,0-5.67,2.54-5.67,5.67v804.66c0,3.13,2.54,5.67,5.67,5.67h36.66
			c3.13,0,5.67,2.54,5.67,5.67v0.66c0,3.13-2.54,5.67-5.67,5.67H570.43c-3.13,0-5.67-2.54-5.67-5.67v-0.66
			c0-3.13,2.54-5.67,5.67-5.67h36.66c3.13,0,5.67-2.54,5.67-5.67V245.32c0-3.13-2.54-5.67-5.67-5.67h-72.33
			c-42.27,0-76.5,66.63-77.95,150.44c-0.05,3.09-2.57,5.56-5.66,5.56h-0.72c-3.13,0-5.67-2.54-5.67-5.67V233.32
			c0-3.13,2.54-5.67,5.67-5.67h420.66C874.22,227.65,876.76,230.19,876.76,233.32z"/>
	</g>
	<g>
		<path d="M822.76,1257.95c0,3.03-2.38,5.55-5.41,5.66c-80.89,3.06-106.49,74.3-174.59,74.3c-99.6,0-180-86.4-180-192v-480
			c0-105.6,80.4-192,180-192c49.25,0,84.75,19.48,110.97,52.84c1.23,1.57,3.19,2.4,5.17,2.17c14.28-1.68,26.14-14.25,27.69-37.7
			c0.2-2.98,2.66-5.31,5.65-5.31h0.85c3.13,0,5.67,2.54,5.67,5.67v168.66c0,3.13-2.54,5.67-5.67,5.67h-0.73
			c-3.08,0-5.59-2.46-5.66-5.55c-2.15-100.39-62.41-174.45-131.94-174.45c-60,0-96,80.4-96,180v480c0,99.6,37.2,180,84,180
			c46.8,0,84-80.4,84-180V924.77c0-3.13-2.54-5.67-5.67-5.67h-36.66c-3.13,0-5.67-2.54-5.67-5.67v-0.66c0-3.13,2.54-5.67,5.67-5.67
			h180.66c3.13,0,5.67,2.54,5.67,5.67v0.66c0,3.13-2.54,5.67-5.67,5.67h-36.66c-3.13,0-5.67,2.54-5.67,5.67V1257.95z"/>
	</g>
	<g>
		<path d="M1604.8,343.15v181.44h-12.96c0-93.31-37.58-168.48-84.24-168.48h-84.24v881.28h51.84v12.96h-207.36v-12.96h51.84V356.11
			h-84.24c-46.66,0-84.24,75.17-84.24,168.48h-12.96V343.15H1604.8z"/>
		<path d="M2116.72,343.15v12.96h-51.84v881.28h51.84v12.96h-207.36v-12.96h51.84V803.23h-181.44v434.16h51.84v12.96h-207.36v-12.96
			h51.84V356.11h-51.84v-12.96h207.36v12.96h-51.84v434.16h181.44V356.11h-51.84v-12.96H2116.72z"/>
		<path d="M2178.91,537.55c0-114.05,86.83-207.36,207.36-207.36c120.53,0,207.36,93.31,207.36,207.36v518.4
			c0,114.05-86.83,207.36-207.36,207.36c-120.53,0-207.36-93.31-207.36-207.36V537.55z M2489.95,537.55
			c0-107.57-38.88-194.4-103.68-194.4s-103.68,86.83-103.68,194.4v518.4c0,107.57,38.88,194.4,103.68,194.4
			s103.68-86.83,103.68-194.4V537.55z"/>
		<path d="M2802.28,343.15l165.89,689.47l142.56-689.47h155.52v12.96h-51.84v881.28h51.84v12.96h-207.36v-12.96h51.84V406.66
			l-174.96,843.7h-20.74l-194.4-806.12v793.16h51.84v12.96h-123.12v-12.96c41.47,0,58.32-16.85,58.32-38.88V394.99
			c0-22.03-16.85-38.88-58.32-38.88v-12.96H2802.28z"/>
		<path d="M3311.6,1042.99h12.96c0,112.75,75.17,203.47,160.71,203.47c69.98,0,119.23-72.58,119.23-164.59
			c0-239.76-292.9-259.2-292.9-531.36c0-121.82,64.8-220.32,180.14-220.32c59.62,0,102.38,23.33,132.19,59.62
			c19.44,0,34.99-15.55,34.99-46.66h12.96v194.4h-12.96c0-104.98-68.69-190.51-147.74-190.51c-69.98,0-106.27,59.62-106.27,151.63
			c0,242.35,292.9,261.79,292.9,531.36c0,128.3-71.28,233.28-193.11,233.28c-69.98,0-120.53-29.81-152.93-77.76
			c-14.26,5.18-27.22,23.33-27.22,64.8h-12.96V1042.99z"/>
		<path d="M3756.12,537.55c0-114.05,86.83-207.36,207.36-207.36c120.53,0,207.36,93.31,207.36,207.36v518.4
			c0,114.05-86.83,207.36-207.36,207.36c-120.53,0-207.36-93.31-207.36-207.36V537.55z M4067.16,537.55
			c0-107.57-38.88-194.4-103.68-194.4c-64.8,0-103.68,86.83-103.68,194.4v518.4c0,107.57,38.88,194.4,103.68,194.4
			c64.8,0,103.68-86.83,103.68-194.4V537.55z"/>
		<path d="M4365.24,343.15l241.06,645.41V356.11h-51.84v-12.96h123.12v12.96c-41.47,0-58.32,16.85-58.32,38.88v855.36h-20.74
			l-300.67-807.41v794.45h51.84v12.96h-123.12v-12.96c41.47,0,58.32-16.85,58.32-38.88V394.99c0-22.03-16.85-38.88-58.32-38.88
			v-12.96H4365.24z"/>
	</g>
</g>
</svg>
